<?xml version="1.0" encoding="UTF-8" standalone="no" ?>
<!DOCTYPE svg PUBLIC "-//W3C//DTD SVG 1.1//EN" "http://www.w3.org/Graphics/SVG/1.1/DTD/svg11.dtd">
<svg width="102mm" xmlns="http://www.w3.org/2000/svg" height="51mm" version="1.1" viewBox="0 0 388 196" xmlns:xlink="http://www.w3.org/1999/xlink">
   <a target="_parent" xlink:href="#F3518109-68D4-49AB-8D16-C8969A3CB8AD">
      <polyline fill="none" points="194,113 194,83" stroke="#800040" stroke-width="1"/>
      <polygon fill="#800040" points="194,83 197,97 191,97" stroke="#800040" stroke-width="1" stroke-linejoin="miter"/>
      <text x="194" y="101" fill="#000000" font-size="10" font-family="'Arial Unicode MS','新宋体'" text-anchor="middle">FK_FK_Order_Customer</text>
   </a>
   <a target="_parent" xlink:href="#9960C256-E2AE-43A7-951B-DBC673D11448">
      <rect x="103" y="19" fill="#ffffff" width="0" height="0" stroke="none" stroke-width="0"/>
      <defs>
         <linearGradient id="Gradient1" x1="0%" x2="100%" y1="0%" y2="100%" gradientUnits="objectBoundingBox">
            <stop offset="5%" stop-color="#ffffff"/>
            <stop offset="95%" stop-color="#d28902"/>
         </linearGradient>
      </defs>
      <rect x="103" y="19" fill="url(#Gradient1)" width="182" height="64" stroke="#804000" stroke-width="1"/>
      <text x="194" y="30" fill="#000000" font-size="10" font-family="'Arial Unicode MS','Arial'" text-anchor="middle">Orders</text>
      <line x1="103" x2="285" y1="36" y2="36" stroke="#804000" stroke-width="1"/>
      <text x="108" y="46" fill="#000000" font-size="10" font-family="'Arial Unicode MS','Arial'" text-anchor="start" text-decoration="underline">Order ID</text>
      <text x="108" y="59" fill="#000000" font-size="10" font-family="'Arial Unicode MS','Arial'" text-anchor="start">Customer Name</text>
      <text x="191" y="46" fill="#000000" font-size="10" font-family="'Arial Unicode MS','Arial'" text-anchor="start" text-decoration="underline">int</text>
      <text x="191" y="59" fill="#000000" font-size="10" font-family="'Arial Unicode MS','Arial'" text-anchor="start">varchar(120)</text>
      <text x="257" y="46" fill="#000000" font-size="10" font-family="'Arial Unicode MS','Arial'" text-anchor="start" text-decoration="underline">&lt;pk&gt;</text>
      <line x1="103" x2="285" y1="66" y2="66" stroke="#804000" stroke-width="1"/>
      <text x="127" y="76" fill="#000000" font-size="10" font-family="'Arial Unicode MS','Arial'" text-anchor="start">PK Orders</text>
      <text x="182" y="76" fill="#000000" font-size="10" font-family="'Arial Unicode MS','Arial'" text-anchor="start">&lt;pk&gt;</text>
      <polyline fill="none" points="110,76 111,77 113,77 114,76 118,76 118,77 120,77 120,75 114,75 113,73 111,73 110,75 110,76" stroke="#000000" stroke-width="1"/>
   </a>
   <a target="_parent" xlink:href="#7574CC24-9D50-49B4-8429-12DBF686E5D1">
      <rect x="131" y="113" fill="#ffffff" width="0" height="0" stroke="none" stroke-width="0"/>
      <defs>
         <linearGradient id="Gradient2" x1="0%" x2="100%" y1="0%" y2="100%" gradientUnits="objectBoundingBox">
            <stop offset="5%" stop-color="#ffffff"/>
            <stop offset="95%" stop-color="#d28902"/>
         </linearGradient>
      </defs>
      <rect x="131" y="113" fill="url(#Gradient2)" width="126" height="64" stroke="#804000" stroke-width="1"/>
      <text x="194" y="124" fill="#000000" font-size="10" font-family="'Arial Unicode MS','Arial'" text-anchor="middle">Customers</text>
      <line x1="131" x2="257" y1="130" y2="130" stroke="#804000" stroke-width="1"/>
      <text x="136" y="140" fill="#000000" font-size="10" font-family="'Arial Unicode MS','Arial'" text-anchor="start" text-decoration="underline">Order ID</text>
      <text x="136" y="153" fill="#000000" font-size="10" font-family="'Arial Unicode MS','Arial'" text-anchor="start">Customer ID</text>
      <text x="201" y="140" fill="#000000" font-size="10" font-family="'Arial Unicode MS','Arial'" text-anchor="start" text-decoration="underline">int</text>
      <text x="201" y="153" fill="#000000" font-size="10" font-family="'Arial Unicode MS','Arial'" text-anchor="start">int</text>
      <text x="221" y="140" fill="#000000" font-size="10" font-family="'Arial Unicode MS','Arial'" text-anchor="start" text-decoration="underline">&lt;pk,fk&gt;</text>
      <line x1="131" x2="257" y1="160" y2="160" stroke="#804000" stroke-width="1"/>
      <text x="155" y="170" fill="#000000" font-size="10" font-family="'Arial Unicode MS','Arial'" text-anchor="start">PK Customers</text>
      <text x="228" y="170" fill="#000000" font-size="10" font-family="'Arial Unicode MS','Arial'" text-anchor="start">&lt;pk&gt;</text>
      <polyline fill="none" points="137,169 139,171 141,171 142,169 146,169 146,171 148,171 148,168 142,168 141,167 139,167 137,168 137,169" stroke="#000000" stroke-width="1"/>
   </a>
</svg>
